<svg xmlns="http://www.w3.org/2000/svg" viewBox="0 0 700 539"><path d="m68 520-11-38-5-18H9v-94h113v-32l-28-25-28-26-8 2c-28 10-56-8-58-37a43 43 0 1 1 85 9l-1 6 28 27 28 26h112l113-1a12223 12223 0 0 0-38-221l-9-46a46 46 0 0 1 83-31c4 7 6 13 12 42l4 16 10-25 12-30c13-19 38-25 58-15 16 8 25 23 25 41 0 9 0 9-8 28l-8 19a6426 6426 0 0 0 139-17 1467 1467 0 0 1 6 78c0 17-2 27-8 42-11 28-31 54-56 70a672 672 0 0 1 8 49l8 48 1 2h96v95h-38l-38 1-9 37-11 37-122-38-122-37h-65l-110 38-111 37-6-19zm84-36 61-20-67-1H78l4 17 9 25 61-21zm439 0 5-22h-74l-73 1 68 21 68 21 6-21zm-210-48-15-89v-2H147v50H33v41h348zm293-20v-21h-95c-94 0-96 0-100-2-9-4-10-16-2-22 3-2 4-2 52-2 46 0 49 0 49-2l-15-84-10 3c-16 5-30 6-47 5-36-3-63-15-81-38-9-12-17-34-18-49 0-5 1-6 3-9 9-9 21-4 22 8 5 33 24 52 58 60 29 6 63-2 88-21 10-7 22-19 28-28 7-11 15-28 17-41l1-3-9-1a70 70 0 0 1-54-52c-1-1-200 23-201 23a20964 20964 0 0 0 48 296h266zM464 191c-14-6-16-24-5-33 7-4 17-4 23 0 9 7 10 20 3 28-6 6-14 8-21 5zM52 263l4-5c7-8 3-22-7-26-16-6-31 13-20 27 3 3 6 5 10 6 3 1 10 0 13-2zm573-123-3-31-33 4c-1 1-1 2 1 6 5 11 15 20 27 24 8 3 8 3 8-3zm-248-29 16-2c1-1-3-16-7-35-9-39-10-41-17-45-13-7-28 3-28 16l13 67c1 1 3 1 23-1zm77-7 18-3c2 0 5-5 13-23 11-25 12-29 9-36-4-6-13-12-19-12s-16 7-18 13a11291 11291 0 0 1-24 61c-1 3 0 3 21 0z" fill="#582a72"/></svg>
