<svg width="100%" height="100%" viewBox="0 0 24 24" fill="none" xmlns="http://www.w3.org/2000/svg">
    <path d="M21 10H3m18 2.5V8.8c0-1.68 0-2.52-.327-3.162a3 3 0 00-1.311-1.311C18.72 4 17.88 4 16.2 4H7.8c-1.68 0-2.52 0-3.162.327a3 3 0 00-1.311 1.311C3 6.28 3 7.12 3 8.8v8.4c0 1.68 0 2.52.327 3.162a3 3 0 001.311 1.311C5.28 22 6.12 22 7.8 22H12m4-20v4M8 2v4" stroke="currentColor" stroke-width="2" stroke-linecap="round" stroke-linejoin="round" />
    <path d="M14.934 16.235a2.249 2.249 0 014.369.75c0 1.499-2.248 2.248-2.248 2.248m.029 3h.01" stroke="currentColor" stroke-width="2" stroke-linecap="round" stroke-linejoin="round" />
</svg>
